HIERARCHY
ROOT Hips
{
	OFFSET	0.000000	0.000000	0.000000
	CHANNELS 6 Xposition Yposition Zposition Zrotation Xrotation Yrotation
	JOINT LeftUpLeg
	{
		OFFSET	7.620000	0.000000	0.000000
		CHANNELS 3 Zrotation Xrotation Yrotation
		JOINT LeftLeg
		{
			OFFSET	0.000000	-44.449999	0.000000
			CHANNELS 3 Zrotation Xrotation Yrotation
			JOINT LeftFoot
			{
				OFFSET	0.000000	-39.369997	0.000000
				CHANNELS 3 Zrotation Xrotation Yrotation
				JOINT LeftFootHeel
				{
					OFFSET	0.000000	-8.890000	-3.810000
					CHANNELS 3 Zrotation Xrotation Yrotation
					End Site
					{
						OFFSET	0.000000	0.000000	15.240000
					}
				}
			}
		}
	}
	JOINT RightUpLeg
	{
		OFFSET	-7.620000	0.000000	0.000000
		CHANNELS 3 Zrotation Xrotation Yrotation
		JOINT RightLeg
		{
			OFFSET	0.000000	-44.449999	0.000000
			CHANNELS 3 Zrotation Xrotation Yrotation
			JOINT RightFoot
			{
				OFFSET	0.000000	-39.369997	0.000000
				CHANNELS 3 Zrotation Xrotation Yrotation
				JOINT RightFootHeel
				{
					OFFSET	0.000000	-8.890000	-3.810000
					CHANNELS 3 Zrotation Xrotation Yrotation
					End Site
					{
						OFFSET	0.000000	0.000000	15.240000
					}
				}
			}
		}
	}
	JOINT Spine
	{
		OFFSET	0.000000	7.620000	-2.540000
		CHANNELS 3 Zrotation Xrotation Yrotation
		JOINT Spine1
		{
			OFFSET	0.000000	7.620000	0.000000
			CHANNELS 3 Zrotation Xrotation Yrotation
			JOINT LeftCollar
			{
				OFFSET	7.620000	33.020000	2.540000
				CHANNELS 3 Zrotation Xrotation Yrotation
				JOINT LeftShoulder
				{
					OFFSET	12.700000	0.000000	0.000000
					CHANNELS 3 Zrotation Xrotation Yrotation
					JOINT LeftForeArm
					{
						OFFSET	0.000000	-30.480000	0.000000
						CHANNELS 3 Zrotation Xrotation Yrotation
						JOINT LeftHand
						{
							OFFSET	0.000000	-24.129997	0.000000
							CHANNELS 3 Zrotation Xrotation Yrotation
							End Site
							{
								OFFSET	0.000000	-17.780000	0.000000
							}
						}
					}
				}
			}
			JOINT RightCollar
			{
				OFFSET	-7.620000	33.020000	2.540000
				CHANNELS 3 Zrotation Xrotation Yrotation
				JOINT RightShoulder
				{
					OFFSET	-12.700000	0.000000	0.000000
					CHANNELS 3 Zrotation Xrotation Yrotation
					JOINT RightForeArm
					{
						OFFSET	0.000000	-30.480000	0.000000
						CHANNELS 3 Zrotation Xrotation Yrotation
						JOINT RightHand
						{
							OFFSET	0.000000	-24.129997	0.000000
							CHANNELS 3 Zrotation Xrotation Yrotation
							End Site
							{
								OFFSET	0.000000	-17.780000	0.000000
							}
						}
					}
				}
			}
			JOINT Neck
			{
				OFFSET	0.000000	38.099997	2.540000
				CHANNELS 3 Zrotation Xrotation Yrotation
				JOINT Head
				{
					OFFSET	0.000000	16.510000	0.000000
					CHANNELS 3 Zrotation Xrotation Yrotation
					End Site
					{
						OFFSET	0.000000	10.159999	0.000000
					}
				}
			}
		}
	}
}
MOTION
Frames:     6
Frame Time: 0.016667
0.000000	95.250599	0.000000	0.020444	-0.740773	0.056025	0.228776	0.109696	-0.487513	-0.085784	0.253586	0.197341	-0.166768	0.375955	0.233207	0.	0.	0.	-0.213584	0.099722	-0.203825	0.284420	0.242309	0.110501	-0.061062	0.389695	0.147248	0.	0.	0.	-0.000000	0.000001	-0.000002	0.088205	-0.402635	-0.373697	-0.214448	1.407963	0.699739	0.445496	-0.826535	0.842481	-0.414565	-1.103142	1.513428	1.071266	0.457100	-0.019978	0.206654	1.294674	0.441542	-0.194909	-0.200550	-0.708912	0.276828	-0.782923	-0.498775	-0.089154	0.338059	0.626381	0.711743	1.849975	0.201026	0.711743	1.849976	0.201026	
0.000000	95.250599	0.000000	0.020444	-0.740773	0.056025	0.228776	0.109696	-0.487513	-0.169840	0.263345	0.122894	-0.083224	0.365797	0.308012	0.	0.	0.	-0.213584	0.099722	-0.203825	0.284420	0.242309	0.110501	-0.061062	0.389695	0.147248	0.	0.	0.	-0.000000	0.000001	-0.000002	0.088205	-0.402635	-0.373697	-0.214448	1.407963	0.699739	0.445496	-0.826535	0.842481	-0.414565	-1.103142	1.513428	1.071266	0.457100	-0.019978	0.206654	1.294674	0.441542	-0.194909	-0.200550	-0.708912	0.276828	-0.782923	-0.498775	-0.089154	0.338059	0.626381	0.686625	1.951872	0.281851	0.686625	1.951874	0.281850	
0.000000	95.250599	0.000000	0.020444	-0.740773	0.056025	0.228776	0.109696	-0.487513	-0.169840	0.263345	0.122894	-0.083224	0.365797	0.308012	0.	0.	0.	-0.213584	0.099722	-0.203825	0.284420	0.242309	0.110501	-0.061062	0.389695	0.147248	0.	0.	0.	-0.000000	0.000001	-0.000002	0.088205	-0.402635	-0.373697	-0.214448	1.407963	0.699739	0.445496	-0.826535	0.842481	-0.414565	-1.103142	1.513428	1.071266	0.457100	-0.019978	0.206654	1.294674	0.441542	-0.194909	-0.200550	-0.708912	0.276828	-0.782923	-0.498775	-0.163258	0.365088	0.686007	0.678676	2.067504	0.320563	0.678676	2.067504	0.320563	
0.000000	95.250599	0.000000	0.020444	-0.740773	0.056025	0.228776	0.109696	-0.487513	-0.169840	0.263345	0.122894	-0.083224	0.365797	0.308012	0.	0.	0.	-0.213584	0.099722	-0.203825	0.284420	0.242309	0.110501	-0.061062	0.389695	0.147248	0.	0.	0.	-0.000000	0.000001	-0.000002	0.088205	-0.402635	-0.373697	-0.214448	1.407963	0.699739	0.445496	-0.826535	0.842481	-0.414565	-1.103142	1.513428	1.071266	0.457100	-0.019978	0.265425	1.217635	0.472505	-0.253140	-0.122918	-0.740859	0.276828	-0.782923	-0.498775	-0.267434	0.407131	0.832754	0.666906	2.106040	0.359263	0.666906	2.106041	0.359263	
0.000000	95.250599	0.000000	0.020444	-0.740773	0.056025	0.228776	0.109696	-0.487513	-0.169840	0.263345	0.122894	-0.083224	0.365797	0.308012	0.	0.	0.	-0.213584	0.099722	-0.203825	0.284420	0.242309	0.110501	-0.061062	0.389695	0.147248	0.	0.	0.	-0.000000	0.000001	-0.000002	0.088205	-0.402635	-0.373697	-0.214448	1.407963	0.699739	0.445496	-0.826535	0.842481	-0.414565	-1.103142	1.513428	1.115670	0.387011	0.048849	0.265425	1.217635	0.472505	-0.253140	-0.122918	-0.740859	0.276828	-0.782923	-0.498775	-0.267434	0.407131	0.832754	0.707901	2.193946	0.373314	0.707901	2.193948	0.373314	
-0.057676	95.250386	-0.031929	0.020444	-0.740773	0.056025	0.228776	0.109696	-0.487513	-0.169840	0.263345	0.122894	-0.083224	0.365797	0.308012	0.	0.	0.	-0.139281	0.058492	-0.138311	0.210297	0.283034	0.044708	-0.061062	0.389695	0.147248	0.	0.	0.	-0.000000	0.000001	-0.000002	0.088205	-0.402635	-0.373697	-0.214448	1.407963	0.699739	0.445496	-0.826535	0.842481	-0.414565	-1.103142	1.513428	1.115670	0.387011	0.048849	0.265425	1.217635	0.472505	-0.253140	-0.122918	-0.740859	0.196536	-0.714450	-0.339613	-0.185604	0.339880	0.672272	0.696076	2.232505	0.412026	0.696076	2.232505	0.412025	
